<?xml version="1.0" encoding="UTF-8" standalone="no"?>
<!-- Created with Inkscape (http://www.inkscape.org/) -->

<svg
   width="190.52678mm"
   height="94.020065mm"
   viewBox="0 0 190.52678 94.020065"
   version="1.1"
   id="svg1"
   xml:space="preserve"
   inkscape:version="1.4.2 (f4327f4, 2025-05-13)"
   sodipodi:docname="error_404.svg"
   xmlns:inkscape="http://www.inkscape.org/namespaces/inkscape"
   xmlns:sodipodi="http://sodipodi.sourceforge.net/DTD/sodipodi-0.dtd"
   xmlns="http://www.w3.org/2000/svg"
   xmlns:svg="http://www.w3.org/2000/svg"><sodipodi:namedview
     id="namedview1"
     pagecolor="#ffffff"
     bordercolor="#000000"
     borderopacity="0.25"
     inkscape:showpageshadow="2"
     inkscape:pageopacity="0.0"
     inkscape:pagecheckerboard="0"
     inkscape:deskcolor="#d1d1d1"
     inkscape:document-units="mm"
     inkscape:zoom="0.50835204"
     inkscape:cx="-20.654978"
     inkscape:cy="551.78297"
     inkscape:window-width="1920"
     inkscape:window-height="1009"
     inkscape:window-x="-8"
     inkscape:window-y="-8"
     inkscape:window-maximized="1"
     inkscape:current-layer="layer1" /><defs
     id="defs1" /><g
     inkscape:label="Camada 1"
     inkscape:groupmode="layer"
     id="layer1"
     transform="translate(-6.8319582,-66.46241)"><path
       style="font-weight:900;font-size:112.579px;font-family:Aptos;-inkscape-font-specification:'Aptos Heavy';fill:#00c0ef;stroke-width:10.6373"
       d="M 37.340428,157.72581 V 145.90722 H 6.8319582 V 129.03136 L 37.560309,85.549921 h 20.174069 v 44.031139 h 9.234997 v 16.32616 h -9.234997 v 11.81859 z M 25.19201,129.58106 h 12.69812 v -18.46999 z m 142.53778,28.14475 v -11.81859 h -30.50847 v -16.87586 l 30.72835,-43.481439 h 20.17407 v 44.031139 h 9.23499 v 16.32616 h -9.23499 v 11.81859 z m -12.14842,-28.14475 h 12.69812 v -18.46999 z"
       id="text1"
       aria-label="404"
       sodipodi:nodetypes="cccccccccccccccccccccccccccccccc" /><g
       id="g28"
       transform="matrix(1.1520605,0,0,1.1520605,-14.265214,-77.521122)"><path
         id="path28"
         style="fill:#ffffff"
         d="m 102.21805,124.97945 c -0.0184,5.7e-4 -0.0386,0.002 -0.0605,0.005 l -0.21549,0.0248 -0.0238,0.78393 c -0.0524,1.71611 0.13232,9.93121 0.22582,10.04383 0.10762,0.1296 0.14952,0.13404 0.30799,0.0336 0.10285,-0.0652 0.11566,-0.72715 0.10336,-5.27203 -0.009,-3.47261 -0.0421,-5.27072 -0.0982,-5.41827 -0.0597,-0.15692 -0.11027,-0.20448 -0.23926,-0.20051 z m 4.10414,5.61103 c -0.0469,0.002 -0.0939,0.0174 -0.13436,0.0475 -0.0702,0.0522 -0.36021,0.7478 -0.64492,1.54564 -0.28471,0.79784 -0.64507,1.80387 -0.80047,2.23604 -0.16191,0.45023 -0.26027,0.84369 -0.23047,0.92139 0.0804,0.20967 0.3521,0.16404 0.47749,-0.0801 0.31854,-0.62017 1.6185,-4.17214 1.6185,-4.42246 0,-0.14824 -0.14498,-0.25488 -0.28577,-0.24805 z m -8.120432,1.13378 c -0.01488,3.5e-4 -0.0303,0.002 -0.04651,0.004 -0.31519,0.0364 -0.302098,0.25182 0.06511,1.04799 0.17793,0.38578 0.552628,1.23103 0.832508,1.87793 0.27987,0.6469 0.560101,1.25537 0.622701,1.35237 0.13323,0.20649 0.212892,0.21912 0.372073,0.0599 0.15515,-0.15515 0.13608,-0.21581 -0.635623,-2.03967 -0.883247,-2.08742 -0.986996,-2.30749 -1.210262,-2.30218 z m 5.622392,10.0707 c -3.59853,0.001 -5.672123,0.19463 -8.853203,0.82372 -4.11354,0.81349 -7.455493,1.9436 -11.024133,3.72846 -1.38525,0.69283 -2.86798,1.5383 -3.8809,2.2133 l -0.469222,0.31316 -0.471289,-0.2744 c -1.262417,-0.73435 -2.873166,-1.36743 -4.196126,-1.64951 -0.529679,-0.11291 -1.00442,-0.14043 -2.313038,-0.13643 -1.534098,0.005 -1.700335,0.0201 -2.430859,0.21756 -0.925571,0.25021 -2.32802,0.92316 -2.955375,1.41852 -0.804572,0.63528 -1.078071,1.36208 -1.081071,2.86907 -0.0027,1.34162 0.288717,3.17191 0.747241,4.69171 0.344773,1.14277 1.126843,3.03978 1.842265,4.46949 l 0.681095,1.36167 -0.310058,0.75551 c -0.51955,1.26515 -1.127083,3.19712 -1.421102,4.51962 -0.500815,2.25267 -0.676995,3.87107 -0.677995,6.22288 l -5.17e-4,1.51825 -0.358117,0.47646 c -1.70786,2.27196 -2.235237,5.14131 -1.486731,8.09201 0.429931,1.69483 1.175325,3.03648 2.354378,4.23747 1.129642,1.15067 1.981646,1.68146 3.515031,2.19108 0.438662,0.14579 1.059201,0.30077 1.378727,0.34417 l 0.580843,0.0785 0.470256,0.53434 c 0.63623,0.72258 1.656423,1.71544 2.362646,2.2996 0.689921,0.57069 0.557159,0.12341 1.264522,4.27209 0.753759,4.42079 0.829958,4.67188 1.547193,5.0922 1.439285,0.84348 4.693328,1.16415 6.340698,0.62528 0.72587,-0.23745 1.025873,-0.60865 1.834513,-2.27169 l 0.730705,-1.50276 0.679545,0.18139 c 0.37391,0.0999 1.126156,0.27335 1.671216,0.38551 0.54506,0.11216 1.013797,0.22848 1.041797,0.25838 0.07353,0.0784 0.461912,1.32513 0.926042,2.97398 0.45357,1.61132 0.564395,1.91218 0.839225,2.27634 0.34922,0.46275 1.348216,0.84224 2.817916,1.07074 v 5.2e-4 c 0.38385,0.0597 1.284181,0.11175 2.000911,0.11575 2.02335,0.0118 3.239091,-0.26099 3.840071,-0.86196 0.40366,-0.40366 1.11111,-1.87238 1.72548,-3.58273 l 0.48679,-1.35496 0.19534,0.33538 c 0.26883,0.46181 0.47591,0.67881 0.8139,0.85215 0.95725,0.49091 4.48438,0.53165 6.03839,0.0698 0.89154,-0.265 1.15855,-0.60742 1.6707,-2.13837 l 0.26769,-0.79995 0.76843,-0.21239 c 0.42248,-0.11684 0.82427,-0.21349 0.89297,-0.21549 0.0865,-0.002 0.40823,0.58076 1.04696,1.89807 0.5235,1.07966 1.02685,2.01166 1.16479,2.15646 0.53606,0.56275 2.138,0.89376 4.36769,0.90176 2.58934,0.009 3.84718,-0.35605 4.33307,-1.25781 0.21527,-0.39952 0.29378,-0.80405 1.03818,-5.35161 0.46025,-2.81169 0.79747,-4.32594 1.25573,-5.63842 0.4075,-1.16712 0.58143,-1.4718 1.35651,-2.37608 1.05014,-1.22518 1.6018,-1.94086 2.23862,-2.90421 2.39925,-3.62948 3.9176,-7.9664 4.40129,-12.57236 0.1026,-0.97674 0.15151,-3.89744 0.0899,-5.35781 -0.0107,-0.25296 0.0122,-0.27983 0.34313,-0.4036 0.58602,-0.21919 1.30789,-0.68094 1.83452,-1.17357 l 0.49712,-0.46509 h 0.54416 c 1.01291,0 1.75073,-0.32557 2.48615,-1.09657 0.45961,-0.48186 0.76918,-1.04922 0.95653,-1.75287 0.30504,-1.14565 -0.0856,-1.62951 -0.6351,-0.78651 -0.29656,0.45494 -1.13703,1.16207 -1.58388,1.33273 -0.18746,0.0715 -0.36004,0.11125 -0.38344,0.0879 -0.0234,-0.0234 5.2e-4,-0.1963 0.0532,-0.38395 0.0527,-0.18764 0.0972,-0.69425 0.0982,-1.12551 0.002,-0.78063 -0.0764,-1.11756 -0.49661,-2.11822 -0.0939,-0.22356 -0.0794,-0.26445 0.26458,-0.75654 0.48737,-0.69719 0.93059,-1.60532 1.18442,-2.42621 0.40674,-1.31535 0.14754,-1.59702 -0.66352,-0.72089 -0.55133,0.59556 -1.38579,1.35797 -2.04845,1.87069 l -0.43925,0.33951 -0.50178,-0.20877 c -0.45456,-0.18924 -0.59788,-0.20884 -1.52136,-0.21084 -1.02522,-0.002 -1.36753,0.0719 -2.46961,0.53485 -0.0864,0.0363 -0.17989,-0.0807 -0.35244,-0.44028 -0.12921,-0.2693 -0.47738,-0.91289 -0.77359,-1.43041 -3.07282,-5.36862 -7.75641,-9.68609 -13.14855,-12.12019 -1.02949,-0.46472 -2.68083,-1.13258 -2.99259,-1.21078 -0.21014,-0.0527 -0.47854,0.0962 -1.92494,1.06816 l -0.33383,0.22427 -0.75655,-1.13636 c -0.86803,-1.30287 -0.67729,-1.18692 -2.37866,-1.44074 -2.29851,-0.34288 -3.6792,-0.43457 -6.54741,-0.43357 z" /><path
         style="fill:#000000"
         d="m 95.520232,206.47291 c -1.4697,-0.2285 -2.46884,-0.6082 -2.81806,-1.07095 -0.27483,-0.36416 -0.38572,-0.66491 -0.83929,-2.27623 -0.46413,-1.64885 -0.85224,-2.89569 -0.92577,-2.97407 -0.028,-0.0299 -0.49695,-0.14613 -1.04201,-0.25829 -0.54506,-0.11216 -1.29695,-0.28562 -1.67086,-0.38547 l -0.67983,-0.18154 -0.73082,1.50297 c -0.80864,1.66304 -1.10834,2.03421 -1.83421,2.27166 -1.64737,0.53887 -4.901348,0.21776 -6.340633,-0.62572 -0.717235,-0.42032 -0.793491,-0.67129 -1.54725,-5.09208 -0.707363,-4.14868 -0.574884,-3.70122 -1.264805,-4.27191 -0.706223,-0.58416 -1.726392,-1.57721 -2.362622,-2.29979 l -0.470162,-0.53398 -0.580957,-0.0788 c -0.319526,-0.0434 -0.939862,-0.19813 -1.378524,-0.34392 -1.533385,-0.50962 -2.385452,-1.04085 -3.515094,-2.19152 -1.179053,-1.20099 -1.92436,-2.54239 -2.354291,-4.23722 -0.748506,-2.9507 -0.221414,-5.82016 1.486446,-8.09212 l 0.358166,-0.47646 6.71e-4,-1.51828 c 10e-4,-2.35181 0.177444,-3.97032 0.678259,-6.22299 0.294019,-1.3225 0.901321,-3.25409 1.420871,-4.51924 l 0.310241,-0.75546 -0.681369,-1.36167 c -0.715422,-1.42971 -1.497297,-3.32687 -1.84207,-4.46964 -0.458524,-1.5198 -0.750157,-3.35034 -0.747501,-4.69196 0.003,-1.50699 0.276836,-2.23347 1.081408,-2.86875 0.627355,-0.49536 2.029606,-1.16859 2.955177,-1.4188 0.730524,-0.19749 0.896675,-0.21236 2.430773,-0.21759 1.308618,-0.004 1.783476,0.0236 2.313155,0.13651 1.32296,0.28208 2.933539,0.91527 4.195956,1.64962 l 0.471385,0.2742 0.46956,-0.31291 c 1.01292,-0.675 2.49523,-1.52045 3.88048,-2.21328 3.56864,-1.78486 6.91087,-2.9153 11.02441,-3.72879 3.18108,-0.62909 5.254508,-0.8219 8.853038,-0.82324 2.86821,-0.001 4.2489,0.0903 6.54741,0.43318 1.70137,0.25382 1.51047,0.13816 2.3785,1.44103 l 0.75692,1.13608 0.33378,-0.22429 c 1.4464,-0.97197 1.71494,-1.12098 1.92508,-1.06824 0.31176,0.0782 1.96259,0.74655 2.99208,1.21127 5.39214,2.4341 10.07584,6.75137 13.14866,12.11999 0.29621,0.51752 0.64429,1.16128 0.7735,1.43058 0.17255,0.35961 0.26617,0.47651 0.35255,0.44022 1.10208,-0.46298 1.44476,-0.53722 2.46998,-0.53512 0.92348,0.002 1.06655,0.0217 1.52111,0.21094 l 0.50174,0.20886 0.4392,-0.33982 c 0.66266,-0.51272 1.49739,-1.27477 2.04872,-1.87033 0.81106,-0.87613 1.07004,-0.59478 0.6633,0.72057 -0.25383,0.82089 -0.69721,1.72898 -1.18458,2.42617 -0.344,0.49209 -0.35841,0.53331 -0.26454,0.75687 0.42019,1.00066 0.49925,1.33769 0.49688,2.11832 -0.001,0.43126 -0.0455,0.93764 -0.0982,1.12528 -0.0527,0.18765 -0.0766,0.36035 -0.0532,0.38378 0.0234,0.0234 0.19599,-0.016 0.38345,-0.0875 0.44685,-0.17066 1.2872,-0.87783 1.58376,-1.33277 0.54952,-0.843 0.94033,-0.35921 0.63529,0.78644 -0.18735,0.70365 -0.49706,1.27118 -0.95667,1.75304 -0.73542,0.771 -1.47318,1.09635 -2.48609,1.09635 h -0.54427 l -0.49699,0.46492 c -0.52663,0.49263 -1.24843,0.9544 -1.83445,1.17359 -0.33093,0.12377 -0.35379,0.15066 -0.34312,0.40362 0.0616,1.46037 0.0125,4.38118 -0.0901,5.35792 -0.48369,4.60596 -2.00192,8.94297 -4.40117,12.57245 -0.63682,0.96335 -1.18839,1.67893 -2.23853,2.90411 -0.77508,0.90428 -0.94909,1.20907 -1.35659,2.37619 -0.45826,1.31248 -0.79549,2.82663 -1.25574,5.63832 -0.7444,4.54756 -0.82287,4.95206 -1.03814,5.35158 -0.48589,0.90176 -1.74405,1.2669 -4.33339,1.25762 -2.22969,-0.008 -3.83158,-0.33857 -4.36764,-0.90132 -0.13794,-0.1448 -0.64142,-1.07686 -1.16492,-2.15652 -0.63873,-1.31731 -0.96034,-1.90051 -1.04683,-1.89829 -0.0687,0.002 -0.47051,0.0988 -0.89299,0.21564 l -0.76814,0.21243 -0.26765,0.80008 c -0.51215,1.53095 -0.77947,1.87297 -1.67101,2.13797 -1.55401,0.46189 -5.0812,0.42111 -6.03845,-0.0698 -0.33799,-0.17334 -0.5449,-0.38991 -0.81373,-0.85172 l -0.19551,-0.33585 -0.4868,1.35521 c -0.61437,1.71035 -1.32167,3.1791 -1.72533,3.58276 -0.60098,0.60097 -1.816688,0.87391 -3.840038,0.86212 -0.71673,-0.004 -1.61719,-0.0564 -2.00104,-0.1161 z m 3.87359,-0.66375 c 0.799188,-0.12599 1.200318,-0.28708 1.508658,-0.60587 0.49567,-0.51248 1.0716,-1.83502 2.06586,-4.74399 0.54259,-1.58749 1.21332,-3.0369 1.40536,-3.0369 0.0643,0 0.1169,0.0171 0.1169,0.038 0,0.0209 -0.14136,0.5382 -0.31414,1.14955 -0.17278,0.61136 -0.30154,1.12415 -0.28614,1.13955 0.0365,0.0365 2.81452,-0.28094 2.86039,-0.32681 0.0192,-0.0192 0.14851,-0.20306 0.28724,-0.40845 l 0.25224,-0.37345 -0.50795,-0.76292 -0.50795,-0.76291 0.31805,-0.37556 c 0.17493,-0.20655 0.74395,-0.79843 1.26449,-1.31527 0.52054,-0.51685 0.94644,-0.96418 0.94644,-0.99408 0,-0.0299 -0.41896,-0.91258 -0.93103,-1.96152 -0.51206,-1.04895 -1.01054,-2.09274 -1.10772,-2.31954 l -0.1767,-0.41236 0.21906,-0.33255 c 0.12049,-0.18291 0.4718,-0.66776 0.7807,-1.07747 0.3089,-0.4097 0.62305,-0.83952 0.69811,-0.95515 l 0.13648,-0.21024 -0.52737,-0.7307 c -1.68753,-2.33818 -2.24169,-3.13474 -2.20578,-3.17065 0.0343,-0.0343 2.89936,3.26898 3.16876,3.65344 0.0787,0.11232 0.023,0.23935 -0.3481,0.79312 -0.5411,0.80759 -1.35307,2.1044 -1.35307,2.16103 0,0.0389 1.09424,1.98593 1.23953,2.20558 0.0507,0.0767 0.35945,-0.0248 1.31024,-0.43067 l 1.24393,-0.53094 0.60471,-1.25653 c 0.33259,-0.6911 0.61511,-1.30886 0.62784,-1.37281 0.0127,-0.0639 -0.0423,-0.45554 -0.12238,-0.87019 l -0.1455,-0.75392 0.49462,-1.38545 c 0.27204,-0.762 0.52461,-1.40399 0.56126,-1.42664 0.0367,-0.0227 0.0667,-0.0213 0.0667,0.003 0,0.0641 -0.35632,1.38657 -0.57741,2.14308 -0.1892,0.64737 -0.18933,0.65053 -0.0539,1.27477 0.0747,0.34419 0.15666,0.64665 0.18215,0.67214 0.0255,0.0255 0.67507,-0.20007 1.44351,-0.50124 2.33138,-0.91371 2.34302,-0.85003 0.059,0.32277 -0.8542,0.43861 -1.58098,0.85041 -1.61506,0.9151 -0.0341,0.0647 -0.29598,0.68218 -0.58198,1.37221 l -0.52001,1.25459 -0.93099,0.50968 c -0.51205,0.28032 -0.98799,0.55135 -1.05765,0.60229 -0.11177,0.0817 -0.0673,0.1785 0.37818,0.82332 0.27765,0.4019 0.52833,0.77187 0.55704,0.82216 0.0297,0.0521 -0.38669,0.64185 -0.9677,1.37045 -0.56096,0.70346 -1.01993,1.30457 -1.01993,1.33581 0,0.0646 1.63329,1.94623 1.68937,1.94623 0.18768,0 2.70454,-0.58592 4.71667,-1.09802 1.37,-0.34867 2.57976,-0.62279 2.68835,-0.60916 0.16084,0.0202 0.0739,0.0886 -0.46906,0.36874 -0.36658,0.18917 -0.94751,0.45802 -1.29096,0.59744 -0.34346,0.13942 -0.63141,0.28379 -0.6399,0.32082 -0.008,0.037 0.39601,0.89537 0.8989,1.90743 0.58704,1.18142 0.98451,1.88986 1.11037,1.9791 0.10782,0.0764 0.46919,0.20841 0.80305,0.29325 1.8056,0.45879 4.941,0.38848 6.1158,-0.13715 0.64211,-0.28729 0.72031,-0.49057 1.10701,-2.87754 0.15371,-0.94879 0.38771,-2.39549 0.52001,-3.21489 0.47235,-2.92546 1.14247,-5.43644 1.76291,-6.60573 0.1546,-0.29137 0.61919,-0.91791 1.03242,-1.3923 3.6467,-4.18646 5.70728,-9.0011 6.39298,-14.93749 0.15378,-1.33132 0.12966,-4.87016 -0.0417,-6.11614 -0.46053,-3.34873 -1.30004,-6.11162 -2.71664,-8.94066 -2.1673,-4.32824 -5.24729,-7.8891 -9.24796,-10.69186 -1.66206,-1.16439 -4.20224,-2.49941 -6.34339,-3.33385 l -0.79242,-0.30881 -0.4893,0.39112 c -0.2691,0.21512 -0.54335,0.42188 -0.60943,0.45947 -0.0982,0.0558 -0.0471,0.14452 0.27881,0.48441 0.44371,0.46274 0.73801,0.83492 0.73801,0.9333 0,0.0356 -0.33521,0.44445 -0.74491,0.90847 -0.40971,0.46402 -0.74492,0.88258 -0.74492,0.93013 0,0.0475 0.30875,0.3471 0.68611,0.66569 0.37736,0.31858 0.9412,0.82407 1.25298,1.12332 l 0.56688,0.54407 -0.66489,1.27125 c -0.36569,0.69918 -0.6649,1.32483 -0.6649,1.39032 0,0.0655 0.87947,0.85148 1.95437,1.74664 l 1.95438,1.62756 0.40854,1.16798 c 0.2247,0.64239 0.38615,1.19037 0.35878,1.21774 -0.0664,0.0664 -0.0349,0.12443 -0.58194,-1.0719 l -0.48304,-1.05632 -0.95612,-0.68835 c -0.52587,-0.37859 -0.97751,-0.68835 -1.00366,-0.68835 -0.0591,0 -1.69962,4.12413 -2.10099,5.28178 -0.16238,0.46832 -0.30638,0.79607 -0.32,0.72833 -0.0487,-0.24213 1.03916,-4.04334 1.60266,-5.60004 0.22121,-0.61109 0.25281,-0.76848 0.17021,-0.84752 -0.34623,-0.33125 -1.74583,-1.44477 -1.79348,-1.42687 -0.0317,0.0119 -0.4909,0.48035 -1.02051,1.041 -0.52962,0.56064 -1.22098,1.29243 -1.53637,1.62619 -0.31538,0.33376 -0.57343,0.56759 -0.57343,0.51963 0,-0.16132 1.53913,-2.22967 2.47202,-3.322 0.39345,-0.4607 0.45868,-0.60304 1.19085,-2.59891 0.0181,-0.0493 -0.69793,-0.59628 -1.59117,-1.21539 -0.89325,-0.61911 -1.70758,-1.19623 -1.80962,-1.28248 l -0.18553,-0.15683 0.5896,-0.98015 c 0.32428,-0.53908 0.58052,-1.0227 0.56942,-1.07471 -0.0111,-0.052 -0.26393,-0.28835 -0.56185,-0.52519 -0.45378,-0.36075 -0.61282,-0.44066 -0.98015,-0.49245 -0.73973,-0.10431 -4.9815,-0.0755 -5.80971,0.0394 -1.54283,0.21412 -2.64921,0.42371 -3.85329,0.72997 l -1.24214,0.31593 -1.054408,-0.69226 c -0.59844,-0.3929 -1.05649,-0.74615 -1.05923,-0.81689 -0.006,-0.15987 0.16479,-0.23468 1.21357,-0.53098 1.512128,-0.42721 3.002638,-0.68597 5.054558,-0.8775 1.352,-0.1262 4.38878,-0.10357 5.76328,0.0429 l 1.17618,0.12537 0.1442,-0.17783 c 0.13999,-0.17264 0.13999,-0.17948 0,-0.23412 -0.22609,-0.0883 -2.35873,-0.36641 -3.86877,-0.50459 -1.93877,-0.17742 -6.51241,-0.11584 -8.468498,0.11402 -3.07672,0.36154 -4.76913,0.68133 -7.33681,1.38629 -3.14794,0.86428 -6.55087,2.27971 -9.33846,3.88428 -0.66926,0.38523 -1.86876,1.14201 -2.056562,1.29751 -0.01681,0.0139 0.186081,0.2569 0.450869,0.53996 0.450533,0.48162 0.591343,0.74416 0.399123,0.74416 -0.13,0 -0.489474,-0.20257 -1.311229,-0.7389 -1.643649,-1.07274 -3.430256,-1.85396 -5.036246,-2.20216 -0.32345,-0.0701 -1.117371,-0.14627 -1.764271,-0.1692 -1.004309,-0.0356 -1.294224,-0.0173 -1.984003,0.12519 -0.983731,0.20321 -1.893133,0.52753 -2.590041,0.92366 l -0.522737,0.29714 0.78412,0.0508 c 1.595799,0.10345 2.822433,0.56795 4.556492,1.72546 0.888561,0.59313 3.031526,2.58562 3.136454,2.91622 0.04183,0.13181 -0.03084,0.23348 -0.37032,0.51807 -2.594076,2.17467 -4.592116,4.91327 -6.06345,8.31081 -1.614236,3.72753 -2.341803,7.40676 -2.252853,11.39245 l 0.01353,0.60611 0.580655,-0.37905 c 0.662835,-0.43271 2.591165,-1.30342 3.567321,-1.61079 1.546152,-0.48684 1.967579,-0.54989 3.693226,-0.55248 1.518587,-0.002 1.650213,0.01 2.381072,0.21353 1.077869,0.30089 1.901492,0.675 2.783572,1.26436 0.687148,0.45912 1.389548,1.0676 1.232378,1.0676 -0.0349,0 -0.32224,-0.16125 -0.63845,-0.35833 -0.703355,-0.43839 -1.612263,-0.82773 -2.656781,-1.13806 -1.98521,-0.58982 -3.810773,-0.62086 -5.883007,-0.10005 -1.066503,0.26805 -1.116943,0.31287 -0.426994,0.3794 1.218171,0.11747 2.176943,0.39057 3.247416,0.92501 2.933079,1.46435 4.753546,4.16022 5.142302,7.61506 0.366414,3.25634 -1.369952,6.60348 -4.057893,7.82225 -0.282275,0.12799 -0.500602,0.24495 -0.48517,0.25991 0.111261,0.10787 2.987275,-0.46769 3.916825,-0.78385 0.312939,-0.10644 0.620048,-0.19353 0.682462,-0.19353 0.17436,0 -0.0123,0.19091 -0.420713,0.43024 -1.224192,0.71743 -3.763507,1.29483 -5.694429,1.29483 h -0.648355 l 0.704074,0.71188 c 2.870071,2.90191 6.997173,5.49299 10.965203,6.88418 1.90353,0.66737 4.99001,1.43774 4.99001,1.24548 0,-0.0436 -0.10949,-0.4475 -0.2433,-0.89763 -0.13382,-0.45013 -0.22355,-0.83817 -0.19942,-0.86231 0.18569,-0.18569 0.66804,0.60808 1.15123,1.89446 0.17585,0.46816 0.60039,1.78476 0.94342,2.92576 0.68408,2.27543 0.7852,2.53635 1.06974,2.76016 0.42947,0.33782 1.63098,0.66259 2.9103,0.78665 0.78287,0.0759 2.32789,0.0341 3.07176,-0.0832 z m -7.26434,-14.85675 c -0.025,-0.0652 -0.006,-0.16651 0.0428,-0.22504 0.26027,-0.3136 2.10054,-0.89297 2.37308,-0.74712 0.0843,0.0451 0.1402,0.12375 0.12421,0.17474 -0.0386,0.12332 -1.99828,0.90932 -2.27648,0.91308 -0.12451,0.002 -0.23763,-0.0479 -0.26361,-0.11566 z m 0.57057,-1.15558 c -0.0609,-0.097 -0.20727,-0.33521 -0.32519,-0.52928 -0.86954,-1.43105 -2.33726,-2.52471 -4.01513,-2.99186 -1.75851,-0.48959 -3.61755,0.0232 -4.31714,1.19085 -0.461,0.76944 -0.87389,0.44242 -0.47725,-0.378 0.36317,-0.75122 1.17856,-1.36495 2.16387,-1.62872 0.61721,-0.16523 1.87269,-0.16163 2.60551,0.007 1.52532,0.35198 3.10263,1.30812 4.01488,2.43379 0.42861,0.52888 0.84967,1.40895 0.84967,1.77592 0,0.263 -0.0218,0.29626 -0.19422,0.29626 -0.11632,0 -0.23866,-0.0708 -0.305,-0.17643 z m -8.44776,-19.05516 c -0.40158,-0.26748 -0.57392,-0.68554 -0.60565,-1.46919 -0.0401,-0.99071 0.24059,-1.65679 0.85648,-2.03226 1.0914,-0.66537 2.14998,0.86018 1.68928,2.43446 -0.29905,1.0219 -1.235,1.53663 -1.94011,1.06699 z m -12.427251,-1.14699 c -0.35244,-0.21492 -0.553114,-0.50583 -0.661993,-0.95969 -0.252449,-1.05232 0.241438,-2.3328 0.995801,-2.58176 0.499871,-0.16497 0.915461,0.0712 1.249274,0.71007 0.218364,0.41788 0.200195,1.48214 -0.03412,1.99853 -0.216601,0.47734 -0.442428,0.73191 -0.774972,0.87361 -0.336041,0.14319 -0.485222,0.13533 -0.773991,-0.0408 z m 16.120621,-1.49305 c -1.6469,-0.5463 -3.02588,-1.67511 -3.69435,-3.02413 -0.17712,-0.35745 -0.34037,-0.81245 -0.36276,-1.01109 -0.039,-0.34586 -0.0322,-0.36118 0.16005,-0.36118 0.17207,0 0.24042,0.0824 0.47831,0.57705 0.74855,1.55631 2.21343,2.7981 3.95468,3.35243 0.54761,0.17433 0.78723,0.36562 0.67846,0.54162 -0.0756,0.12234 -0.74442,0.0812 -1.21439,-0.0747 z m -18.223928,-1.75295 c -0.251742,-0.18733 -0.09632,-0.3403 0.4923,-0.48455 0.655973,-0.16075 1.328035,-0.46781 1.953375,-0.89247 0.479892,-0.32589 1.243226,-1.09993 1.480016,-1.50079 0.09985,-0.16902 0.199131,-0.23612 0.349419,-0.23612 0.317889,0 0.334123,0.1981 0.0586,0.71504 -0.463225,0.8691 -1.757805,1.89193 -2.850742,2.25233 -0.680216,0.22431 -1.296607,0.28523 -1.482966,0.14656 z m 26.970658,-3.79558 c -0.10225,-0.12105 -0.47981,-0.58921 -0.83901,-1.04036 -0.84362,-1.05957 -2.43748,-2.66086 -3.65432,-3.67136 -1.0209,-0.84779 -2.63809,-1.94922 -4.05737,-2.76339 -0.93562,-0.53672 -1.13697,-0.68118 -1.13697,-0.81577 0,-0.15529 0.94174,-1.78978 1.39914,-2.42835 2.04642,-2.85699 4.15607,-4.0684 7.06936,-4.05938 3.78561,0.0117 6.437128,1.87812 7.402938,5.21092 0.52569,1.81405 0.56886,4.13064 0.10613,5.69549 -0.22335,0.75531 -0.27477,0.46767 -0.31723,-1.77458 -0.0426,-2.24765 -0.12242,-2.90484 -0.4913,-4.04299 -0.57787,-1.78295 -1.82587,-3.15096 -3.493778,-3.82972 -1.131,-0.46026 -1.72271,-0.572 -3.04993,-0.57592 -0.66847,-0.002 -1.31958,0.0253 -1.44693,0.0607 -0.23031,0.064 -0.22891,0.0656 0.26652,0.31116 0.63195,0.31322 1.60872,1.22556 2.09461,1.95646 0.70128,1.05488 1.22529,2.58526 1.44339,4.21549 0.13032,0.97407 0.10815,3.16334 -0.0439,4.3394 -0.12091,0.93494 -0.47106,2.55714 -0.65751,3.04617 -0.0442,0.11597 -0.15408,0.2503 -0.24414,0.2985 -0.13947,0.0746 -0.19131,0.055 -0.34966,-0.13246 z m 0.37461,-2.04316 c 0.28792,-1.49046 0.36652,-2.23458 0.36652,-3.46974 0,-3.02611 -0.78335,-5.41485 -2.24396,-6.84267 -1.20182,-1.17484 -2.14368,-1.42055 -3.26454,-0.85163 -0.99133,0.50318 -2.25755,1.75163 -3.19118,3.14641 -0.44454,0.66411 -0.945,1.50773 -0.945,1.59297 0,0.0247 0.35497,0.24408 0.78881,0.48758 1.00432,0.56368 2.66436,1.66805 3.52385,2.3443 1.53334,1.20643 3.51604,3.168 4.42407,4.3769 0.12147,0.16172 0.24612,0.29404 0.277,0.29404 0.0309,0 0.14988,-0.48517 0.26443,-1.07816 z m -12.43796,41.97752 c 0.66685,-0.21082 0.84145,-0.41898 1.51434,-1.80545 0.33636,-0.69306 0.62366,-1.3268 0.63844,-1.40832 0.0224,-0.12363 -0.0967,-0.19016 -0.71804,-0.40115 -2.70305,-0.91784 -5.523001,-2.34204 -7.939221,-4.00965 -0.463611,-0.31997 -0.842929,-0.5493 -0.842929,-0.50962 0,0.0397 0.05164,0.34951 0.114758,0.6885 0.06312,0.339 0.224357,1.32207 0.358311,2.1846 0.513903,3.30903 0.758639,4.26512 1.183217,4.62238 0.281841,0.23715 1.051975,0.48193 2.136934,0.6792 1.00351,0.18246 2.91795,0.16065 3.55419,-0.0405 z m 25.124098,-0.94169 c 0.82915,-0.14941 1.28139,-0.36352 1.44888,-0.68597 0.15682,-0.3019 0.57679,-1.50322 0.53944,-1.54304 -0.0138,-0.0147 -0.58349,0.0819 -1.266,0.21473 -1.83909,0.35786 -3.02057,0.52587 -5.88855,0.83738 l -0.41337,0.0449 0.20948,0.38487 c 0.3152,0.57913 0.64594,0.73943 1.77023,0.85795 0.83986,0.0885 2.83422,0.0271 3.59989,-0.11082 z M 75.086095,189.34328 c 1.858523,-0.44114 3.395116,-1.67783 4.234751,-3.40824 0.658628,-1.35738 0.911246,-2.72353 0.775547,-4.19413 -0.345628,-3.74565 -2.871639,-6.807 -6.382508,-7.73515 -1.066117,-0.28185 -2.653226,-0.29965 -3.602721,-0.0404 -1.743044,0.4759 -2.970755,1.46741 -3.752888,3.03087 -1.145218,2.28925 -1.184877,4.86949 -0.11661,7.58662 0.578478,1.47135 2.077372,3.22924 3.3871,3.97236 0.71049,0.40312 1.906265,0.82982 2.634496,0.94008 0.70907,0.10736 2.029691,0.0362 2.822833,-0.15201 z m -0.580274,-4.86252 c -0.987089,-0.86668 -0.792026,-4.57621 0.263629,-5.01347 0.786333,-0.32571 1.416851,0.90589 1.424436,2.78238 0.0038,0.93351 -0.09445,1.47566 -0.35299,1.94839 -0.308011,0.56317 -0.878138,0.68389 -1.335075,0.2827 z m 0.327188,-0.87848 c -0.107129,-0.44854 -0.106716,-2.67606 5.77e-4,-3.11688 0.07655,-0.31451 0.07355,-0.3362 -0.02756,-0.19965 -0.415694,0.56138 -0.454603,2.67619 -0.06316,3.43314 0.156953,0.30352 0.182575,0.27037 0.09015,-0.11661 z m -5.832745,0.57585 c -0.812831,-0.49564 -1.095401,-3.25116 -0.459498,-4.48086 0.296926,-0.5742 0.79475,-0.78217 1.197309,-0.50021 0.221183,0.15492 0.510782,0.7273 0.651851,1.28834 0.162964,0.64812 0.142851,2.27601 -0.03529,2.85658 -0.260978,0.85052 -0.792586,1.17872 -1.354369,0.83615 z m 0.203608,-0.92871 c -0.131281,-0.61212 -0.163547,-1.57828 -0.07989,-2.3923 0.04769,-0.46401 0.106884,-0.89626 0.131553,-0.96055 0.02467,-0.0643 0.0086,-0.11688 -0.03565,-0.11688 -0.04427,0 -0.145085,0.18525 -0.224022,0.41166 -0.200679,0.57561 -0.203063,2.25782 -0.0041,2.90125 0.155083,0.50155 0.310734,0.61662 0.212122,0.15682 z m 66.854648,-16.24859 c 0.65684,-0.33018 1.57243,-1.10007 1.30825,-1.10007 -0.0385,0 -0.26908,-0.1199 -0.51245,-0.26645 l -0.44248,-0.26645 -0.59511,0.28605 -0.59512,0.28606 0.0452,0.39206 c 0.0799,0.69356 0.1335,0.90174 0.23195,0.90174 0.053,0 0.3049,-0.10482 0.55976,-0.23294 z m 3.8496,-1.7743 c 0.59381,-0.28482 1.08474,-0.75302 1.36577,-1.30255 0.21667,-0.42368 0.18868,-0.43233 -0.20994,-0.0649 -0.57458,0.52963 -1.12676,0.74862 -1.87602,0.74403 -0.47032,-0.003 -0.72207,-0.0466 -1.00599,-0.17478 -1.11718,-0.50426 -1.62941,-1.47344 -1.34773,-2.55002 0.0654,-0.25008 0.11897,-0.48346 0.11897,-0.51862 0,-0.0816 -0.56768,-0.47731 -0.68468,-0.47731 -0.0485,0 -0.16321,0.20057 -0.25492,0.4457 -0.45105,1.20553 -0.18316,2.51814 0.69191,3.39027 0.87828,0.87533 2.04963,1.06119 3.20263,0.50817 z m -4.42127,-0.0805 c 0.4486,-0.22778 0.45821,-0.24997 0.25053,-0.57896 -0.62878,-0.99605 -0.73525,-2.41266 -0.26397,-3.51213 l 0.15056,-0.35123 -0.36309,0.0498 c -0.39166,0.0537 -1.12369,0.41189 -1.18887,0.58176 -0.022,0.0574 0.1049,0.58763 0.28205,1.17833 0.17714,0.59071 0.41535,1.45334 0.52934,1.91695 0.11399,0.46361 0.23993,0.84293 0.27988,0.84293 0.0399,0 0.18555,-0.0573 0.32357,-0.12742 z m 3.49142,-1.55844 c 0.0573,-0.17251 0.12374,-0.56427 0.14773,-0.87057 0.12351,-1.57737 -0.77109,-3.11084 -2.14822,-3.68235 -0.47754,-0.19818 -0.63003,-0.22218 -1.43601,-0.22597 -0.74401,-0.003 -1.0007,0.0282 -1.46748,0.18113 -0.90324,0.29597 -0.89014,0.27236 -0.57847,1.0424 0.14562,0.35976 0.27325,0.66468 0.28363,0.67759 0.0104,0.0129 0.15134,-0.0664 0.31326,-0.1763 0.41385,-0.28085 0.84632,-0.38991 1.52747,-0.3852 1.61739,0.0112 2.61998,1.30445 2.3319,3.008 -0.0594,0.35153 -0.0584,0.35367 0.27444,0.56891 0.44567,0.2882 0.62104,0.25609 0.75175,-0.13764 z m -1.57757,-1.23408 c -0.0188,-0.0975 -0.0348,-0.0362 -0.0357,0.13631 -8.7e-4,0.17251 0.0145,0.25231 0.0341,0.17734 0.0196,-0.075 0.0203,-0.21611 0.002,-0.31365 z m -67.159033,-2.19645 c 0.56965,-1.08869 1.575901,-2.64518 2.307842,-3.56981 0.620954,-0.78443 2.068641,-2.28145 2.69341,-2.7852 l 0.352854,-0.2845 -0.744914,-0.7545 c -1.021466,-1.03461 -2.114349,-1.83789 -3.254099,-2.39179 -1.309505,-0.63639 -1.882177,-0.787 -3.182431,-0.83697 -0.702363,-0.027 -1.120317,-0.0115 -1.226776,0.0455 -0.254269,0.13608 -0.374007,0.77277 -0.363409,1.93238 0.01343,1.46912 0.311694,3.08251 0.906002,4.90075 0.45142,1.38108 1.890356,4.5479 2.066473,4.5479 0.01348,0 0.21375,-0.36168 0.445048,-0.80373 z m 68.913873,-1.16662 c 0.29353,-0.43225 0.85571,-1.53854 0.85571,-1.68393 0,-0.0317 -0.25582,0.18843 -0.56848,0.48912 -0.31267,0.30069 -0.7361,0.66549 -0.94095,0.81067 -0.20485,0.14517 -0.37246,0.28275 -0.37246,0.30573 0,0.0879 0.50607,0.55893 0.60055,0.55893 0.0546,0 0.24616,-0.21624 0.42563,-0.48052 z M 99.675662,136.00616 c -0.0626,-0.097 -0.34282,-0.70571 -0.62269,-1.35261 -0.27988,-0.6469 -0.65444,-1.49181 -0.83237,-1.87759 -0.36721,-0.79617 -0.38069,-1.01174 -0.0655,-1.0481 0.25936,-0.0299 0.31497,0.0718 1.2571,2.29839 0.771698,1.82386 0.790728,1.88495 0.635578,2.0401 -0.159178,0.15918 -0.238848,0.14629 -0.372078,-0.0602 z m 2.468258,-0.16959 c -0.0935,-0.11262 -0.27803,-8.32747 -0.22564,-10.04358 l 0.0239,-0.78412 0.2156,-0.0248 c 0.17506,-0.0201 0.23139,0.0167 0.2996,0.19603 0.0561,0.14755 0.0887,1.94568 0.0981,5.41829 0.0123,4.54488 -7.2e-4,5.20682 -0.10357,5.27201 -0.15847,0.10045 -0.20035,0.0958 -0.30797,-0.0338 z m 2.36814,-0.49528 c -0.0298,-0.0777 0.0686,-0.47111 0.23051,-0.92134 0.1554,-0.43217 0.51548,-1.43854 0.80019,-2.23638 0.28471,-0.79784 0.57511,-1.49336 0.64532,-1.5456 0.16187,-0.12042 0.41965,0.003 0.41965,0.20065 0,0.25032 -1.2998,3.80245 -1.61834,4.42262 -0.12539,0.24414 -0.39689,0.28967 -0.47733,0.08 z"
         id="path1"
         sodipodi:nodetypes="cssssscssssssccsssscssscsssssccscssscsscsccssscscssssscsscsssscssscsssssssscscsssscssccccsssssssscccssssscssscssscssccssccsssssssssscssssssssssscssssssssssssscscsssssscssscssscsssssssssssssscsssscscscssscscsssssssssssscsssssscssccsssssssssssscscsssscssssccscsccscssssscsssccssssscsssssccsssscssssssssssssssssssssssssssssssssssssssssssssssssssssssssscsscscssccsssssssscssssssssssssssssssssssssssssscccssssssccsssssssssscsssssssssscsssssssscssccssscssscsssssssssssscsssssccscccssssscssssscc" /></g></g></svg>
