<?xml version="1.0" encoding="UTF-8" standalone="no"?>
<!-- Created with Inkscape (http://www.inkscape.org/) -->

<svg
   width="69.710823mm"
   height="17.118357mm"
   viewBox="0 0 69.710823 17.118357"
   version="1.1"
   id="svg1"
   inkscape:version="1.4.2 (f4327f4, 2025-05-13)"
   sodipodi:docname="logo_finansis.svg"
   xmlns:inkscape="http://www.inkscape.org/namespaces/inkscape"
   xmlns:sodipodi="http://sodipodi.sourceforge.net/DTD/sodipodi-0.dtd"
   xmlns="http://www.w3.org/2000/svg"
   xmlns:svg="http://www.w3.org/2000/svg">
  <sodipodi:namedview
     id="namedview1"
     pagecolor="#ffffff"
     bordercolor="#000000"
     borderopacity="0.25"
     inkscape:showpageshadow="2"
     inkscape:pageopacity="0.0"
     inkscape:pagecheckerboard="0"
     inkscape:deskcolor="#d1d1d1"
     inkscape:document-units="mm"
     inkscape:zoom="7.7909517"
     inkscape:cx="156.20685"
     inkscape:cy="36.388366"
     inkscape:window-width="1920"
     inkscape:window-height="1009"
     inkscape:window-x="-8"
     inkscape:window-y="-8"
     inkscape:window-maximized="1"
     inkscape:current-layer="layer1" />
  <defs
     id="defs1" />
  <g
     inkscape:label="Camada 1"
     inkscape:groupmode="layer"
     id="layer1"
     transform="translate(-61.837941,-136.78956)">
    <g
       id="g1"
       transform="matrix(1.8338732,0,0,1.8338732,-5.76562,-156.3415)">
      <path
         style="font-weight:600;font-size:8.09997px;font-family:Poppins;-inkscape-font-specification:'Poppins Semi-Bold';fill:#292929;stroke-width:0.674996"
         d="m 40.354901,160.5392 v 0.9153 H 37.99781 v 1.44989 h 1.806293 v 0.8991 H 37.99781 v 2.38949 h -1.133996 v -5.65378 z m 1.377001,0.6318 q -0.299699,0 -0.502198,-0.1863 -0.1944,-0.1944 -0.1944,-0.4779 0,-0.2835 0.1944,-0.4698 0.202499,-0.1944 0.502198,-0.1944 0.299699,0 0.494098,0.1944 0.202499,0.1863 0.202499,0.4698 0,0.2835 -0.202499,0.4779 -0.194399,0.1863 -0.494098,0.1863 z m 0.558898,0.53459 v 4.48739 h -1.133996 v -4.48739 z m 3.604485,-0.0648 q 0.801897,0 1.295995,0.5103 0.494099,0.5022 0.494099,1.4094 v 2.63249 h -1.133996 v -2.47859 q 0,-0.5346 -0.267299,-0.8181 -0.267299,-0.2916 -0.728997,-0.2916 -0.469799,0 -0.745198,0.2916 -0.267299,0.2835 -0.267299,0.8181 v 2.47859 h -1.133995 v -4.48739 h 1.133995 v 0.5589 q 0.226799,-0.2916 0.575098,-0.4536 0.356399,-0.1701 0.777597,-0.1701 z m 2.575786,2.2923 q 0,-0.6804 0.267299,-1.2069 0.275399,-0.5265 0.737097,-0.81 0.469798,-0.2835 1.044896,-0.2835 0.502198,0 0.874797,0.2025 0.380698,0.2025 0.607497,0.5103 v -0.6399 h 1.142096 v 4.48739 h -1.142096 v -0.6561 q -0.218699,0.3159 -0.607497,0.5265 -0.380699,0.2025 -0.882897,0.2025 -0.566998,0 -1.036796,-0.2916 -0.461698,-0.2916 -0.737097,-0.8181 -0.267299,-0.5346 -0.267299,-1.22309 z m 3.531586,0.0162 q 0,-0.4131 -0.161999,-0.7047 -0.161999,-0.2997 -0.437398,-0.4536 -0.275399,-0.162 -0.591298,-0.162 -0.315899,0 -0.583198,0.1539 -0.267299,0.1539 -0.437398,0.4536 -0.162,0.2916 -0.162,0.6966 0,0.40499 0.162,0.71279 0.170099,0.2997 0.437398,0.4617 0.275399,0.162 0.583198,0.162 0.315899,0 0.591298,-0.1539 0.275399,-0.162 0.437398,-0.4536 0.161999,-0.2997 0.161999,-0.71279 z m 4.738479,-2.3085 q 0.801897,0 1.295995,0.5103 0.494098,0.5022 0.494098,1.4094 v 2.63249 h -1.133996 v -2.47859 q 0,-0.5346 -0.267299,-0.8181 -0.267299,-0.2916 -0.728997,-0.2916 -0.469798,0 -0.745197,0.2916 -0.267299,0.2835 -0.267299,0.8181 v 2.47859 h -1.133996 v -4.48739 h 1.133996 v 0.5589 q 0.226799,-0.2916 0.575098,-0.4536 0.356398,-0.1701 0.777597,-0.1701 z m 4.819476,4.60889 q -0.591298,0 -1.069196,-0.2025 -0.469798,-0.2025 -0.745197,-0.5832 -0.275399,-0.3807 -0.283499,-0.8991 h 1.214996 q 0.0243,0.3483 0.242999,0.5508 0.226799,0.2025 0.615597,0.2025 0.396899,0 0.623698,-0.1863 0.226799,-0.1944 0.226799,-0.5022 0,-0.2511 -0.153899,-0.41309 -0.1539,-0.162 -0.388799,-0.2511 -0.226799,-0.0972 -0.631797,-0.2106 -0.550798,-0.162 -0.899097,-0.3159 -0.340199,-0.162 -0.591298,-0.4779 -0.242999,-0.324 -0.242999,-0.8586 0,-0.5022 0.251099,-0.87479 0.251099,-0.3726 0.704697,-0.567 0.453599,-0.2025 1.036797,-0.2025 0.874796,0 1.417494,0.4293 0.550798,0.4212 0.607498,1.18259 H 62.24911 q -0.0162,-0.2916 -0.251099,-0.47789 -0.2268,-0.1944 -0.607498,-0.1944 -0.332099,0 -0.534598,0.1701 -0.194399,0.17009 -0.194399,0.49409 0,0.2268 0.145799,0.3807 0.153899,0.1458 0.372599,0.243 0.226799,0.0891 0.631797,0.2106 0.550798,0.162 0.899097,0.324 0.348299,0.162 0.599398,0.486 0.251099,0.324 0.251099,0.85049 0,0.4536 -0.234899,0.8424 -0.234899,0.3888 -0.688498,0.6237 -0.453598,0.2268 -1.077296,0.2268 z m 3.55588,-5.07868 q -0.299699,0 -0.502198,-0.1863 -0.194399,-0.1944 -0.194399,-0.4779 0,-0.2835 0.194399,-0.4698 0.202499,-0.1944 0.502198,-0.1944 0.299699,0 0.494098,0.1944 0.202499,0.1863 0.202499,0.4698 0,0.2835 -0.202499,0.4779 -0.194399,0.1863 -0.494098,0.1863 z m 0.558898,0.53459 v 4.48739 h -1.133996 v -4.48739 z m 2.834989,4.56029 q -0.550798,0 -0.988197,-0.1944 -0.437398,-0.2025 -0.696597,-0.5427 -0.251099,-0.3402 -0.275399,-0.7533 h 1.142096 q 0.0324,0.2592 0.251099,0.4293 0.226799,0.1701 0.558898,0.1701 0.323999,0 0.502198,-0.1296 0.186299,-0.1296 0.186299,-0.3321 0,-0.2187 -0.226799,-0.324 -0.218699,-0.1134 -0.704697,-0.243 -0.502198,-0.12149 -0.826197,-0.25109 -0.315899,-0.1296 -0.550798,-0.3969 -0.226799,-0.2673 -0.226799,-0.7209 0,-0.3726 0.210599,-0.6804 0.218699,-0.3078 0.615598,-0.486 0.404998,-0.1782 0.947696,-0.1782 0.801897,0 1.279795,0.405 0.477899,0.3969 0.526498,1.0773 h -1.085396 q -0.0243,-0.2673 -0.226799,-0.4212 -0.194399,-0.162 -0.526498,-0.162 -0.307799,0 -0.477898,0.1134 -0.161999,0.1134 -0.161999,0.3159 0,0.2268 0.226799,0.3483 0.226799,0.1134 0.704697,0.2349 0.485998,0.1215 0.801897,0.2511 0.315899,0.1296 0.542698,0.405 0.234899,0.26729 0.242999,0.71279 0,0.3888 -0.218699,0.6966 -0.210599,0.3078 -0.615598,0.486 -0.396898,0.1701 -0.931496,0.1701 z"
         id="text1"
         aria-label="FinanSis" />
      <path
         style="fill:#00c0ef;fill-opacity:1;stroke-width:0.285302"
         d="m 59.353206,166.63275 c 0,0 5.480724,3.95551 13.063562,-0.72503 l -0.56967,-0.55673 3.029606,-0.32368 -1.437121,3.02961 -0.25894,-1.02282 c 0,0 -7.109198,4.70758 -14.112272,0.16832 0,0 -0.336623,-0.51789 0.284835,-0.56967 z"
         id="path1"
         sodipodi:nodetypes="cccccccc" />
    </g>
    <rect
       style="fill:#292929;fill-opacity:1;stroke-width:0.3"
       id="rect1"
       width="1.0806112"
       height="0.76843464"
       x="106.43118"
       y="137.20979" />
    <rect
       style="fill:#292929;fill-opacity:1;stroke-width:0.3"
       id="rect2"
       width="1.0806112"
       height="0.76843464"
       x="106.43118"
       y="148.4167" />
  </g>
</svg>
